<?xml version="1.0" standalone="no"?>
<!DOCTYPE svg PUBLIC "-//W3C//DTD SVG 20010904//EN"
 "http://www.w3.org/TR/2001/REC-SVG-20010904/DTD/svg10.dtd">
<svg version="1.0" xmlns="http://www.w3.org/2000/svg"
 width="500.000000pt" height="500.000000pt" viewBox="0 0 500.000000 500.000000"
 preserveAspectRatio="xMidYMid meet">

<g transform="translate(0.000000,500.000000) scale(0.100000,-0.100000)"
fill="#000000" stroke="none">
<path d="M2460 3884 c-185 -20 -303 -54 -442 -126 -260 -136 -439 -354 -524
-643 -22 -77 -27 -115 -31 -255 -4 -139 -2 -180 15 -260 11 -52 23 -104 26
-115 4 -11 -1 -4 -10 15 -9 19 -25 78 -36 130 -26 126 -21 354 11 475 83 314
279 556 574 706 65 33 117 62 115 65 -9 8 -87 -20 -163 -59 -265 -138 -460
-378 -551 -682 -26 -84 -28 -103 -28 -280 -1 -164 2 -202 21 -275 102 -399
405 -709 792 -810 358 -95 738 1 1006 252 68 63 147 162 186 232 28 51 22 46
-33 -29 -110 -150 -250 -271 -401 -347 -77 -38 -215 -76 -287 -79 -32 -1 -33
-2 -10 -8 23 -7 21 -8 -15 -14 -146 -23 -293 -15 -443 24 -76 20 -258 101
-297 133 -11 9 21 -4 70 -28 181 -89 341 -126 539 -125 71 0 113 4 101 8 -15
7 -6 11 40 20 286 57 518 215 657 447 58 96 75 143 22 57 -104 -166 -242 -291
-419 -379 -147 -73 -236 -95 -405 -101 -163 -6 -271 11 -405 64 -238 95 -416
254 -530 474 -43 84 -98 246 -116 344 -13 71 -12 211 1 275 15 71 49 178 60
185 4 2 1 -13 -6 -35 -67 -194 -52 -464 36 -672 83 -193 259 -382 447 -477 73
-36 61 -23 -20 23 -173 99 -301 234 -387 411 -74 151 -94 239 -94 415 0 133 2
152 28 230 35 105 104 245 161 326 24 33 83 98 132 144 48 46 78 78 66 72 -12
-7 -25 -17 -28 -22 -3 -6 -11 -10 -17 -10 -26 0 85 75 172 116 52 25 109 52
125 60 84 40 187 57 345 57 135 0 168 -3 251 -26 343 -91 606 -334 729 -675
31 -84 38 -71 10 20 -87 288 -323 530 -627 644 -126 48 -198 59 -368 59 -142
-1 -171 -4 -255 -27 -201 -56 -342 -141 -495 -299 -56 -57 -118 -132 -139
-166 -42 -68 -57 -83 -30 -30 35 68 100 154 176 233 156 163 351 268 575 310
102 19 290 21 383 4 34 -6 64 -9 67 -7 13 14 -253 39 -327 31z"/>
<path d="M2808 3843 c7 -3 16 -2 19 1 4 3 -2 6 -13 5 -11 0 -14 -3 -6 -6z"/>
<path d="M2848 3833 c7 -3 16 -2 19 1 4 3 -2 6 -13 5 -11 0 -14 -3 -6 -6z"/>
<path d="M1679 3663 c-13 -16 -12 -17 4 -4 9 7 17 15 17 17 0 8 -8 3 -21 -13z"/>
<path d="M3230 3646 c0 -2 8 -10 18 -17 15 -13 16 -12 3 4 -13 16 -21 21 -21
13z"/>
<path d="M3345 3540 c38 -38 72 -70 74 -70 3 0 -26 32 -64 70 -38 39 -72 70
-74 70 -3 0 26 -31 64 -70z"/>
<path d="M3444 3427 c16 -20 30 -37 33 -37 7 0 -36 58 -49 66 -7 4 1 -9 16
-29z"/>
<path d="M3496 3355 c10 -16 38 -68 61 -115 23 -47 43 -81 43 -75 0 16 -79
168 -101 195 l-21 25 18 -30z"/>
<path d="M3605 3134 c3 -12 12 -41 20 -65 12 -38 14 -39 8 -9 -3 19 -12 49
-19 65 -8 17 -11 21 -9 9z"/>
<path d="M2090 2871 c0 -161 4 -251 10 -251 6 0 10 87 10 240 l0 240 138 0
c165 0 199 -8 245 -60 57 -63 61 -141 11 -207 -38 -50 -72 -63 -163 -63 -44 0
-83 -4 -86 -10 -8 -14 155 -13 192 1 60 23 112 100 113 167 0 40 -24 99 -53
130 -46 50 -72 56 -249 60 l-168 4 0 -251z"/>
<path d="M2600 3110 c0 -6 60 -10 160 -10 100 0 160 4 160 10 0 6 -60 10 -160
10 -100 0 -160 -4 -160 -10z"/>
<path d="M2130 2845 c0 -143 4 -225 10 -225 6 0 10 78 10 215 l0 215 136 0
136 0 33 -33 c42 -42 52 -77 33 -125 -22 -60 -66 -82 -160 -82 -50 0 -77 -4
-73 -10 11 -18 147 -12 185 9 67 35 96 135 56 196 -37 56 -68 65 -223 65
l-143 0 0 -225z"/>
<path d="M2600 3060 c0 -6 60 -10 160 -10 100 0 160 4 160 10 0 6 -60 10 -160
10 -100 0 -160 -4 -160 -10z"/>
<path d="M2170 2826 c0 -131 4 -206 10 -206 6 0 10 72 10 195 l0 195 104 0
c89 0 107 -3 130 -21 20 -16 26 -29 26 -58 0 -58 -26 -75 -121 -80 -86 -3 -99
-21 -16 -21 70 0 123 16 142 43 23 33 19 91 -9 124 -24 28 -26 28 -150 31
l-126 4 0 -206z"/>
<path d="M2600 3020 c0 -5 20 -10 45 -10 l45 0 2 -197 2 -198 6 194 c4 143 8
195 18 199 9 3 12 -40 12 -192 0 -124 4 -196 10 -196 6 0 10 72 10 195 0 123
4 195 10 195 6 0 10 -72 10 -195 0 -123 4 -195 10 -195 6 0 10 72 10 195 0
167 2 195 15 195 13 0 15 -30 17 -197 l2 -198 6 195 5 195 43 3 c23 2 42 7 42
13 0 5 -67 9 -160 9 -100 0 -160 -4 -160 -10z"/>
<path d="M3642 3000 c0 -14 2 -19 5 -12 2 6 2 18 0 25 -3 6 -5 1 -5 -13z"/>
<path d="M2220 2805 c0 -117 4 -185 10 -185 6 0 10 65 10 175 l0 175 74 0 c78
0 101 -12 94 -47 -3 -15 -15 -19 -73 -21 -102 -4 -107 -22 -7 -22 70 0 83 3
92 19 33 62 -4 91 -117 91 l-83 0 0 -185z"/>
<path d="M3652 2950 c0 -14 2 -19 5 -12 2 6 2 18 0 25 -3 6 -5 1 -5 -13z"/>
<path d="M3662 2870 c0 -19 2 -27 5 -17 2 9 2 25 0 35 -3 9 -5 1 -5 -18z"/>
<path d="M1551 2754 c0 -11 3 -14 6 -6 3 7 2 16 -1 19 -3 4 -6 -2 -5 -13z"/>
<path d="M1421 2574 c0 -11 3 -14 6 -6 3 7 2 16 -1 19 -3 4 -6 -2 -5 -13z"/>
<path d="M1431 2534 c0 -11 3 -14 6 -6 3 7 2 16 -1 19 -3 4 -6 -2 -5 -13z"/>
<path d="M1460 2445 c0 -5 5 -17 10 -25 5 -8 10 -10 10 -5 0 6 -5 17 -10 25
-5 8 -10 11 -10 5z"/>
<path d="M1480 2387 c0 -10 12 -41 26 -70 96 -188 280 -371 479 -474 79 -40
215 -93 238 -93 7 1 -30 16 -81 35 -157 57 -281 135 -410 259 -97 93 -153 168
-211 281 -22 44 -41 72 -41 62z"/>
<path d="M2290 1733 c68 -20 416 -23 465 -5 l30 12 -30 -5 c-74 -13 -315 -17
-380 -7 -134 21 -141 22 -85 5z"/>
<path d="M3520 1240 c0 -5 7 -10 15 -10 13 0 15 -21 15 -126 0 -109 -2 -129
-17 -140 -16 -12 -12 -13 32 -13 44 0 48 1 33 13 -24 17 -23 59 1 80 18 17 20
16 51 -28 17 -25 26 -46 20 -46 -5 0 -10 -4 -10 -10 0 -5 18 -10 40 -10 22 0
40 5 40 10 0 6 -6 10 -13 10 -13 0 -87 92 -87 109 0 13 59 61 76 61 8 0 14 5
14 10 0 6 -18 10 -40 10 -22 0 -40 -4 -40 -10 0 -5 5 -10 12 -10 7 0 -6 -18
-27 -40 -21 -22 -43 -40 -47 -40 -4 0 -8 43 -8 95 l0 95 -30 0 c-16 0 -30 -4
-30 -10z"/>
<path d="M890 1230 c0 -5 7 -10 15 -10 13 0 15 -21 15 -125 0 -104 -2 -125
-15 -125 -8 0 -15 -4 -15 -10 0 -5 25 -10 55 -10 30 0 55 5 55 10 0 6 -11 10
-25 10 -23 0 -25 4 -25 44 l0 43 49 7 c65 8 101 44 101 97 0 64 -24 79 -125
79 -50 0 -85 -4 -85 -10z m154 -21 c19 -15 26 -30 26 -55 0 -47 -29 -74 -80
-74 l-40 0 0 68 c0 38 3 72 7 75 13 14 61 6 87 -14z"/>
<path d="M2680 1213 c1 -25 2 -26 14 -10 8 11 27 17 50 17 l36 0 0 -125 c0
-117 -1 -125 -19 -125 -11 0 -23 -4 -26 -10 -4 -6 18 -10 60 -10 42 0 64 4 60
10 -3 6 -15 10 -26 10 -18 0 -19 8 -19 125 l0 125 35 0 c22 0 38 -6 44 -17 9
-15 10 -14 11 10 l0 27 -110 0 -110 0 0 -27z"/>
<path d="M2480 1191 c0 -11 -10 -27 -22 -35 -18 -13 -19 -16 -5 -16 15 0 17
-11 17 -79 0 -44 3 -86 6 -95 7 -18 60 -22 84 -6 15 10 13 11 -30 13 -24 2
-25 4 -28 85 l-3 82 31 0 c16 0 30 5 30 10 0 6 -13 10 -30 10 -25 0 -30 4 -30
25 0 14 -4 25 -10 25 -5 0 -10 -9 -10 -19z"/>
<path d="M2033 1163 c-37 -7 -73 -59 -73 -104 0 -45 21 -94 45 -103 21 -8 79
-8 99 0 30 11 16 19 -28 16 -37 -3 -46 0 -65 23 -11 15 -21 36 -21 46 0 17 8
19 70 19 l70 0 0 34 c0 25 -7 40 -26 55 -27 21 -31 22 -71 14z m51 -29 c9 -8
16 -26 16 -40 0 -22 -3 -24 -55 -24 -58 0 -63 6 -44 43 21 40 56 49 83 21z"/>
<path d="M3403 1163 c-32 -6 -70 -49 -77 -88 -8 -41 14 -99 42 -114 34 -18
112 -12 112 9 0 4 -11 5 -25 2 -45 -8 -75 6 -92 45 -35 86 40 172 97 111 l20
-22 0 27 c0 17 -5 27 -14 27 -8 0 -20 2 -28 4 -7 2 -23 1 -35 -1z"/>
<path d="M3823 1155 c-42 -18 -67 -67 -60 -118 8 -56 40 -87 93 -87 45 0 74 8
74 20 0 4 -21 5 -48 2 -53 -5 -79 14 -84 59 -3 23 0 24 62 27 36 2 69 7 74 12
15 15 -14 81 -41 91 -30 11 -31 11 -70 -6z m65 -17 c7 -7 12 -25 12 -41 0 -28
-1 -28 -52 -25 -47 3 -53 5 -50 23 8 46 61 72 90 43z"/>
<path d="M1163 1153 c-28 -11 -11 -21 27 -16 46 6 70 -8 70 -42 0 -19 -7 -23
-41 -28 -22 -3 -49 -13 -60 -23 -21 -19 -25 -64 -7 -82 15 -15 84 -16 94 -1 4
8 9 8 17 0 6 -6 20 -11 31 -11 16 0 17 3 8 12 -7 7 -12 43 -12 89 0 93 -11
109 -73 108 -23 0 -48 -3 -54 -6z m95 -135 c-3 -43 -3 -43 -43 -43 -38 0 -40
2 -40 30 0 31 30 55 68 55 15 0 18 -7 15 -42z"/>
<path d="M1330 1151 c0 -5 6 -11 13 -14 7 -3 30 -48 51 -102 43 -107 41 -138
-9 -151 -29 -7 -28 -31 1 -26 34 5 60 48 99 162 22 62 45 114 52 117 27 10 12
23 -27 23 -22 0 -40 -4 -40 -10 0 -5 7 -10 16 -10 10 0 14 -5 10 -15 -3 -9
-13 -41 -22 -73 -9 -31 -19 -60 -23 -65 -4 -4 -19 27 -34 69 -26 72 -26 77
-10 90 16 12 12 13 -29 14 -27 0 -48 -4 -48 -9z"/>
<path d="M1580 1150 c-12 -8 -12 -10 3 -16 25 -9 25 -151 0 -170 -16 -12 -12
-13 32 -13 44 0 48 1 33 13 -14 10 -18 28 -18 84 0 79 13 96 68 90 31 -4 40
-26 41 -107 1 -40 -3 -57 -16 -67 -16 -12 -12 -13 32 -13 43 0 48 2 33 12 -12
10 -17 32 -19 88 -2 72 -2 74 25 84 47 16 61 -2 64 -84 2 -45 -2 -78 -9 -87
-10 -12 -3 -14 37 -14 41 1 46 3 33 13 -11 8 -18 36 -22 90 -3 43 -11 85 -17
93 -15 17 -73 19 -102 3 -14 -8 -23 -8 -31 0 -14 14 -63 14 -90 0 -16 -9 -22
-9 -25 0 -4 13 -31 14 -52 1z"/>
<path d="M2190 1150 c-12 -8 -12 -10 3 -16 25 -9 25 -151 0 -170 -16 -12 -12
-13 32 -13 44 0 48 1 32 13 -15 12 -17 26 -15 87 3 70 4 74 31 83 49 17 62 0
65 -88 2 -48 -1 -76 -8 -76 -5 0 -10 -4 -10 -10 0 -5 21 -10 48 -10 39 1 44 3
31 13 -11 8 -17 35 -21 89 -3 43 -11 84 -18 93 -14 17 -57 20 -94 5 -17 -6
-26 -6 -26 0 0 13 -30 13 -50 0z"/>
<path d="M2952 1151 c-10 -6 -10 -10 3 -21 21 -18 22 -160 1 -160 -8 0 -18 -4
-21 -10 -4 -6 17 -10 55 -10 38 0 59 4 55 10 -3 6 -15 10 -26 10 -18 0 -20 6
-17 78 l3 77 38 3 c24 2 37 8 37 18 0 17 -33 18 -63 3 -16 -9 -22 -9 -25 0 -4
13 -22 14 -40 2z"/>
<path d="M3133 1153 c-28 -11 -11 -21 27 -16 46 6 70 -8 70 -42 0 -19 -7 -23
-41 -28 -69 -9 -102 -62 -63 -101 18 -18 66 -21 95 -6 13 7 19 7 19 0 0 -5 12
-10 28 -10 23 1 24 2 10 11 -15 8 -18 25 -18 94 0 73 -3 86 -19 95 -20 10 -86
12 -108 3z m95 -135 c-3 -39 -6 -43 -31 -46 -57 -7 -77 50 -27 75 48 24 61 18
58 -29z"/>
<path d="M3990 1150 c-12 -8 -12 -10 3 -16 25 -9 25 -151 0 -170 -16 -12 -9
-13 47 -14 46 0 61 3 50 10 -8 5 -23 10 -33 10 -16 0 -18 9 -15 78 l3 77 38 3
c24 2 37 8 37 18 0 16 -33 19 -61 4 -13 -7 -19 -7 -19 0 0 12 -30 13 -50 0z"/>
</g>
</svg>
